<svg id="visual" viewBox="0 0 1920 1080" width="1920" height="1080" xmlns="http://www.w3.org/2000/svg" xmlns:xlink="http://www.w3.org/1999/xlink" version="1.1"><g stroke-width="3" stroke-linejoin="bevel"><path d="M957 560.1L1049.7 468.9L966 475.9Z" fill="#400000" stroke="#000000"></path><path d="M957 560.1L1089.7 589.1L1049.7 468.9Z" fill="#140000" stroke="#000000"></path><path d="M1171.3 413.7L1040.7 407.7L1049.7 468.9Z" fill="#370301" stroke="#000000"></path><path d="M1049.7 468.9L1040.7 407.7L966 475.9Z" fill="#140000" stroke="#000000"></path><path d="M1040.7 407.7L962 398.7L966 475.9Z" fill="#3c0201" stroke="#000000"></path><path d="M966 475.9L860.3 558.1L957 560.1Z" fill="#330402" stroke="#000000"></path><path d="M1089.7 589.1L1183.3 493.9L1049.7 468.9Z" fill="#1f0201" stroke="#000000"></path><path d="M841.3 459.9L860.3 558.1L966 475.9Z" fill="#3c0201" stroke="#000000"></path><path d="M957 560.1L933 678.3L1089.7 589.1Z" fill="#330402" stroke="#000000"></path><path d="M1149.3 592.1L1183.3 493.9L1089.7 589.1Z" fill="#330402" stroke="#000000"></path><path d="M860.3 558.1L933 678.3L957 560.1Z" fill="#2f0502" stroke="#000000"></path><path d="M1089.7 589.1L1165.3 684.3L1149.3 592.1Z" fill="#1a0101" stroke="#000000"></path><path d="M962 398.7L841.3 459.9L966 475.9Z" fill="#2b0502" stroke="#000000"></path><path d="M1183.3 493.9L1171.3 413.7L1049.7 468.9Z" fill="#370301" stroke="#000000"></path><path d="M1040.7 407.7L973 314.5L962 398.7Z" fill="#270402" stroke="#000000"></path><path d="M933 678.3L1080.7 714.3L1089.7 589.1Z" fill="#330402" stroke="#000000"></path><path d="M1071.7 298.5L973 314.5L1040.7 407.7Z" fill="#1f0201" stroke="#000000"></path><path d="M962 398.7L836.3 385.7L841.3 459.9Z" fill="#1a0101" stroke="#000000"></path><path d="M1080.7 714.3L1165.3 684.3L1089.7 589.1Z" fill="#330402" stroke="#000000"></path><path d="M1149.3 592.1L1252 611.1L1183.3 493.9Z" fill="#2b0502" stroke="#000000"></path><path d="M884.3 319.5L836.3 385.7L962 398.7Z" fill="#270402" stroke="#000000"></path><path d="M1171.3 413.7L1071.7 298.5L1040.7 407.7Z" fill="#270402" stroke="#000000"></path><path d="M769.7 671.3L841.3 690.3L860.3 558.1Z" fill="#2b0502" stroke="#000000"></path><path d="M860.3 558.1L841.3 690.3L933 678.3Z" fill="#140000" stroke="#000000"></path><path d="M933 678.3L1059.7 767.5L1080.7 714.3Z" fill="#140000" stroke="#000000"></path><path d="M736.7 585.1L860.3 558.1L720.7 514.9Z" fill="#2f0502" stroke="#000000"></path><path d="M975 180.4L884.3 319.5L973 314.5Z" fill="#230302" stroke="#000000"></path><path d="M973 314.5L884.3 319.5L962 398.7Z" fill="#1f0201" stroke="#000000"></path><path d="M940 768.5L1059.7 767.5L933 678.3Z" fill="#2f0502" stroke="#000000"></path><path d="M1080.7 714.3L1141.3 800.5L1165.3 684.3Z" fill="#3c0201" stroke="#000000"></path><path d="M1165.3 684.3L1252 611.1L1149.3 592.1Z" fill="#3c0201" stroke="#000000"></path><path d="M1183.3 493.9L1276 411.7L1171.3 413.7Z" fill="#1f0201" stroke="#000000"></path><path d="M841.3 690.3L940 768.5L933 678.3Z" fill="#140000" stroke="#000000"></path><path d="M1260 310.5L1157.3 292.5L1171.3 413.7Z" fill="#2b0502" stroke="#000000"></path><path d="M1171.3 413.7L1157.3 292.5L1071.7 298.5Z" fill="#400000" stroke="#000000"></path><path d="M1252 611.1L1290 490.9L1183.3 493.9Z" fill="#270402" stroke="#000000"></path><path d="M720.7 514.9L860.3 558.1L841.3 459.9Z" fill="#2b0502" stroke="#000000"></path><path d="M736.7 585.1L769.7 671.3L860.3 558.1Z" fill="#2b0502" stroke="#000000"></path><path d="M841.3 690.3L836.3 815.5L940 768.5Z" fill="#230302" stroke="#000000"></path><path d="M1290 490.9L1276 411.7L1183.3 493.9Z" fill="#370301" stroke="#000000"></path><path d="M760.7 367.7L841.3 459.9L836.3 385.7Z" fill="#2f0502" stroke="#000000"></path><path d="M760.7 367.7L720.7 514.9L841.3 459.9Z" fill="#330402" stroke="#000000"></path><path d="M884.3 319.5L760.7 367.7L836.3 385.7Z" fill="#1a0101" stroke="#000000"></path><path d="M1059.7 767.5L1141.3 800.5L1080.7 714.3Z" fill="#400000" stroke="#000000"></path><path d="M1165.3 684.3L1308 704.3L1252 611.1Z" fill="#2b0502" stroke="#000000"></path><path d="M1074.7 899.6L1141.3 800.5L1059.7 767.5Z" fill="#270402" stroke="#000000"></path><path d="M1366.7 404.7L1260 310.5L1276 411.7Z" fill="#1a0101" stroke="#000000"></path><path d="M1276 411.7L1260 310.5L1171.3 413.7Z" fill="#2f0502" stroke="#000000"></path><path d="M1260 310.5L1169.3 223.4L1157.3 292.5Z" fill="#230302" stroke="#000000"></path><path d="M1157.3 292.5L1169.3 223.4L1071.7 298.5Z" fill="#2f0502" stroke="#000000"></path><path d="M1071.7 298.5L975 180.4L973 314.5Z" fill="#370301" stroke="#000000"></path><path d="M753.7 769.5L836.3 815.5L841.3 690.3Z" fill="#330402" stroke="#000000"></path><path d="M983 911.6L1074.7 899.6L1059.7 767.5Z" fill="#140000" stroke="#000000"></path><path d="M1037.7 171.4L975 180.4L1071.7 298.5Z" fill="#2b0502" stroke="#000000"></path><path d="M884.3 319.5L716.7 281.5L760.7 367.7Z" fill="#270402" stroke="#000000"></path><path d="M1252 801.5L1308 704.3L1165.3 684.3Z" fill="#370301" stroke="#000000"></path><path d="M1252 611.1L1373.7 610.1L1290 490.9Z" fill="#1a0101" stroke="#000000"></path><path d="M760.7 367.7L669 458.9L720.7 514.9Z" fill="#230302" stroke="#000000"></path><path d="M720.7 514.9L659 566.1L736.7 585.1Z" fill="#330402" stroke="#000000"></path><path d="M736.7 585.1L608 716.3L769.7 671.3Z" fill="#140000" stroke="#000000"></path><path d="M769.7 671.3L753.7 769.5L841.3 690.3Z" fill="#2b0502" stroke="#000000"></path><path d="M1169.3 223.4L1037.7 171.4L1071.7 298.5Z" fill="#330402" stroke="#000000"></path><path d="M669 458.9L659 566.1L720.7 514.9Z" fill="#230302" stroke="#000000"></path><path d="M608 716.3L753.7 769.5L769.7 671.3Z" fill="#2b0502" stroke="#000000"></path><path d="M1186.3 884.6L1252 801.5L1141.3 800.5Z" fill="#1a0101" stroke="#000000"></path><path d="M1141.3 800.5L1252 801.5L1165.3 684.3Z" fill="#400000" stroke="#000000"></path><path d="M1411.7 690.3L1373.7 610.1L1308 704.3Z" fill="#270402" stroke="#000000"></path><path d="M1308 704.3L1373.7 610.1L1252 611.1Z" fill="#400000" stroke="#000000"></path><path d="M1290 490.9L1366.7 404.7L1276 411.7Z" fill="#2f0502" stroke="#000000"></path><path d="M1386.7 518.9L1366.7 404.7L1290 490.9Z" fill="#330402" stroke="#000000"></path><path d="M1260 310.5L1249 197.4L1169.3 223.4Z" fill="#330402" stroke="#000000"></path><path d="M1373.7 610.1L1386.7 518.9L1290 490.9Z" fill="#1a0101" stroke="#000000"></path><path d="M960 80.2L878.3 171.4L975 180.4Z" fill="#330402" stroke="#000000"></path><path d="M975 180.4L878.3 171.4L884.3 319.5Z" fill="#2f0502" stroke="#000000"></path><path d="M760.7 367.7L623 384.7L669 458.9Z" fill="#330402" stroke="#000000"></path><path d="M983 911.6L1059.7 767.5L940 768.5Z" fill="#400000" stroke="#000000"></path><path d="M878.3 171.4L716.7 281.5L884.3 319.5Z" fill="#3c0201" stroke="#000000"></path><path d="M757.7 910.6L860.3 879.6L836.3 815.5Z" fill="#400000" stroke="#000000"></path><path d="M836.3 815.5L860.3 879.6L940 768.5Z" fill="#270402" stroke="#000000"></path><path d="M860.3 879.6L983 911.6L940 768.5Z" fill="#1f0201" stroke="#000000"></path><path d="M1074.7 899.6L1186.3 884.6L1141.3 800.5Z" fill="#270402" stroke="#000000"></path><path d="M1361.7 203.4L1249 197.4L1260 310.5Z" fill="#230302" stroke="#000000"></path><path d="M1169.3 223.4L1093.7 103.2L1037.7 171.4Z" fill="#230302" stroke="#000000"></path><path d="M716.7 281.5L660 321.5L760.7 367.7Z" fill="#2f0502" stroke="#000000"></path><path d="M669 458.9L558.3 507.9L659 566.1Z" fill="#2b0502" stroke="#000000"></path><path d="M660 321.5L623 384.7L760.7 367.7Z" fill="#330402" stroke="#000000"></path><path d="M1186.3 884.6L1265 868.6L1252 801.5Z" fill="#140000" stroke="#000000"></path><path d="M1379.7 769.5L1411.7 690.3L1308 704.3Z" fill="#400000" stroke="#000000"></path><path d="M1157.3 76.2L1093.7 103.2L1169.3 223.4Z" fill="#1a0101" stroke="#000000"></path><path d="M1037.7 171.4L960 80.2L975 180.4Z" fill="#1f0201" stroke="#000000"></path><path d="M1379.7 769.5L1308 704.3L1252 801.5Z" fill="#230302" stroke="#000000"></path><path d="M1373.7 610.1L1494.3 570.1L1386.7 518.9Z" fill="#3c0201" stroke="#000000"></path><path d="M983 911.6L1084.7 950.8L1074.7 899.6Z" fill="#270402" stroke="#000000"></path><path d="M1074.7 899.6L1084.7 950.8L1186.3 884.6Z" fill="#140000" stroke="#000000"></path><path d="M1186.3 884.6L1263 979.8L1265 868.6Z" fill="#330402" stroke="#000000"></path><path d="M953 965.8L1084.7 950.8L983 911.6Z" fill="#330402" stroke="#000000"></path><path d="M1265 868.6L1379.7 769.5L1252 801.5Z" fill="#1f0201" stroke="#000000"></path><path d="M1093.7 103.2L960 80.2L1037.7 171.4Z" fill="#1a0101" stroke="#000000"></path><path d="M878.3 171.4L718.7 182.4L716.7 281.5Z" fill="#140000" stroke="#000000"></path><path d="M716.7 281.5L662 168.4L660 321.5Z" fill="#370301" stroke="#000000"></path><path d="M860.3 879.6L953 965.8L983 911.6Z" fill="#140000" stroke="#000000"></path><path d="M659 566.1L608 716.3L736.7 585.1Z" fill="#2f0502" stroke="#000000"></path><path d="M753.7 769.5L757.7 910.6L836.3 815.5Z" fill="#330402" stroke="#000000"></path><path d="M860.3 879.6L841.3 978.8L953 965.8Z" fill="#330402" stroke="#000000"></path><path d="M546.3 558.1L608 716.3L659 566.1Z" fill="#1a0101" stroke="#000000"></path><path d="M960 80.2L823.3 117.2L878.3 171.4Z" fill="#3c0201" stroke="#000000"></path><path d="M823.3 117.2L718.7 182.4L878.3 171.4Z" fill="#370301" stroke="#000000"></path><path d="M557.3 308.5L559.3 369.7L623 384.7Z" fill="#370301" stroke="#000000"></path><path d="M559.3 369.7L558.3 507.9L623 384.7Z" fill="#2b0502" stroke="#000000"></path><path d="M623 384.7L558.3 507.9L669 458.9Z" fill="#370301" stroke="#000000"></path><path d="M630 892.6L757.7 910.6L753.7 769.5Z" fill="#1f0201" stroke="#000000"></path><path d="M548.3 767.5L622 778.5L608 716.3Z" fill="#140000" stroke="#000000"></path><path d="M608 716.3L622 778.5L753.7 769.5Z" fill="#140000" stroke="#000000"></path><path d="M558.3 507.9L546.3 558.1L659 566.1Z" fill="#3c0201" stroke="#000000"></path><path d="M1480.3 369.7L1409.7 273.5L1366.7 404.7Z" fill="#400000" stroke="#000000"></path><path d="M1366.7 404.7L1409.7 273.5L1260 310.5Z" fill="#2b0502" stroke="#000000"></path><path d="M1249 197.4L1157.3 76.2L1169.3 223.4Z" fill="#1a0101" stroke="#000000"></path><path d="M1480.3 369.7L1366.7 404.7L1520.3 492.9Z" fill="#1f0201" stroke="#000000"></path><path d="M1279 105.2L1157.3 76.2L1249 197.4Z" fill="#2b0502" stroke="#000000"></path><path d="M1096.7 0L935 0L960 80.2Z" fill="#3c0201" stroke="#000000"></path><path d="M1409.7 273.5L1361.7 203.4L1260 310.5Z" fill="#370301" stroke="#000000"></path><path d="M557.3 308.5L623 384.7L660 321.5Z" fill="#1f0201" stroke="#000000"></path><path d="M558.3 507.9L446.7 506.9L546.3 558.1Z" fill="#1a0101" stroke="#000000"></path><path d="M1516.3 679.3L1494.3 570.1L1411.7 690.3Z" fill="#2b0502" stroke="#000000"></path><path d="M1411.7 690.3L1494.3 570.1L1373.7 610.1Z" fill="#400000" stroke="#000000"></path><path d="M757.7 910.6L841.3 978.8L860.3 879.6Z" fill="#1f0201" stroke="#000000"></path><path d="M1080.7 1080L1158.3 993.8L1084.7 950.8Z" fill="#230302" stroke="#000000"></path><path d="M1080.7 1080L1084.7 950.8L953 965.8Z" fill="#1f0201" stroke="#000000"></path><path d="M1084.7 950.8L1158.3 993.8L1186.3 884.6Z" fill="#330402" stroke="#000000"></path><path d="M1265 868.6L1402.7 856.6L1379.7 769.5Z" fill="#330402" stroke="#000000"></path><path d="M1520.3 492.9L1366.7 404.7L1386.7 518.9Z" fill="#2b0502" stroke="#000000"></path><path d="M1409.7 273.5L1476.3 187.4L1361.7 203.4Z" fill="#1f0201" stroke="#000000"></path><path d="M1361.7 203.4L1279 105.2L1249 197.4Z" fill="#3c0201" stroke="#000000"></path><path d="M773.7 77.2L662 168.4L718.7 182.4Z" fill="#1f0201" stroke="#000000"></path><path d="M718.7 182.4L662 168.4L716.7 281.5Z" fill="#3c0201" stroke="#000000"></path><path d="M662 168.4L557.3 308.5L660 321.5Z" fill="#230302" stroke="#000000"></path><path d="M395.7 577.1L517.3 673.3L546.3 558.1Z" fill="#270402" stroke="#000000"></path><path d="M823.3 117.2L773.7 77.2L718.7 182.4Z" fill="#1f0201" stroke="#000000"></path><path d="M848.3 0L773.7 77.2L823.3 117.2Z" fill="#2b0502" stroke="#000000"></path><path d="M848.3 0L823.3 117.2L960 80.2Z" fill="#370301" stroke="#000000"></path><path d="M1494.3 570.1L1520.3 492.9L1386.7 518.9Z" fill="#270402" stroke="#000000"></path><path d="M1402.7 980.8L1402.7 856.6L1265 868.6Z" fill="#2b0502" stroke="#000000"></path><path d="M1379.7 769.5L1468.3 778.5L1411.7 690.3Z" fill="#140000" stroke="#000000"></path><path d="M1629 565.1L1579 468.9L1520.3 492.9Z" fill="#140000" stroke="#000000"></path><path d="M446.7 506.9L558.3 507.9L559.3 369.7Z" fill="#2f0502" stroke="#000000"></path><path d="M546.3 558.1L517.3 673.3L608 716.3Z" fill="#370301" stroke="#000000"></path><path d="M757.7 910.6L726.7 955.8L841.3 978.8Z" fill="#370301" stroke="#000000"></path><path d="M630 892.6L726.7 955.8L757.7 910.6Z" fill="#140000" stroke="#000000"></path><path d="M630 892.6L753.7 769.5L622 778.5Z" fill="#370301" stroke="#000000"></path><path d="M1158.3 993.8L1263 979.8L1186.3 884.6Z" fill="#2f0502" stroke="#000000"></path><path d="M1402.7 856.6L1468.3 778.5L1379.7 769.5Z" fill="#370301" stroke="#000000"></path><path d="M517.3 673.3L548.3 767.5L608 716.3Z" fill="#230302" stroke="#000000"></path><path d="M1468.3 778.5L1516.3 679.3L1411.7 690.3Z" fill="#3c0201" stroke="#000000"></path><path d="M1096.7 0L1093.7 103.2L1157.3 76.2Z" fill="#230302" stroke="#000000"></path><path d="M1096.7 0L960 80.2L1093.7 103.2Z" fill="#2b0502" stroke="#000000"></path><path d="M1204.3 0L1096.7 0L1157.3 76.2Z" fill="#140000" stroke="#000000"></path><path d="M544.3 889.6L630 892.6L622 778.5Z" fill="#2f0502" stroke="#000000"></path><path d="M1480.3 369.7L1499.3 275.5L1409.7 273.5Z" fill="#1f0201" stroke="#000000"></path><path d="M1361.7 203.4L1382.7 95.2L1279 105.2Z" fill="#140000" stroke="#000000"></path><path d="M1575 287.5L1499.3 275.5L1480.3 369.7Z" fill="#230302" stroke="#000000"></path><path d="M935 0L848.3 0L960 80.2Z" fill="#140000" stroke="#000000"></path><path d="M773.7 77.2L617 112.2L662 168.4Z" fill="#2f0502" stroke="#000000"></path><path d="M1261 0L1204.3 0L1279 105.2Z" fill="#1f0201" stroke="#000000"></path><path d="M1279 105.2L1204.3 0L1157.3 76.2Z" fill="#3c0201" stroke="#000000"></path><path d="M936 1080L1080.7 1080L953 965.8Z" fill="#330402" stroke="#000000"></path><path d="M1158.3 993.8L1151.3 1080L1263 979.8Z" fill="#270402" stroke="#000000"></path><path d="M936 1080L953 965.8L884.3 1080Z" fill="#400000" stroke="#000000"></path><path d="M884.3 1080L953 965.8L841.3 978.8Z" fill="#1f0201" stroke="#000000"></path><path d="M433.7 371.7L446.7 506.9L559.3 369.7Z" fill="#270402" stroke="#000000"></path><path d="M448.7 800.5L544.3 889.6L548.3 767.5Z" fill="#2b0502" stroke="#000000"></path><path d="M1476.3 187.4L1382.7 95.2L1361.7 203.4Z" fill="#2f0502" stroke="#000000"></path><path d="M1629 565.1L1520.3 492.9L1494.3 570.1Z" fill="#2b0502" stroke="#000000"></path><path d="M1520.3 492.9L1579 468.9L1480.3 369.7Z" fill="#370301" stroke="#000000"></path><path d="M741.7 0L617 112.2L773.7 77.2Z" fill="#1a0101" stroke="#000000"></path><path d="M662 168.4L557.3 173.4L557.3 308.5Z" fill="#2f0502" stroke="#000000"></path><path d="M557.3 308.5L433.7 371.7L559.3 369.7Z" fill="#3c0201" stroke="#000000"></path><path d="M718.7 1080L884.3 1080L841.3 978.8Z" fill="#2f0502" stroke="#000000"></path><path d="M718.7 1080L841.3 978.8L726.7 955.8Z" fill="#330402" stroke="#000000"></path><path d="M527.3 951.8L645 962.8L630 892.6Z" fill="#3c0201" stroke="#000000"></path><path d="M630 892.6L645 962.8L726.7 955.8Z" fill="#1a0101" stroke="#000000"></path><path d="M1580 210.4L1476.3 187.4L1499.3 275.5Z" fill="#1f0201" stroke="#000000"></path><path d="M1499.3 275.5L1476.3 187.4L1409.7 273.5Z" fill="#2b0502" stroke="#000000"></path><path d="M1080.7 1080L1151.3 1080L1158.3 993.8Z" fill="#370301" stroke="#000000"></path><path d="M1263 979.8L1402.7 980.8L1265 868.6Z" fill="#270402" stroke="#000000"></path><path d="M617 112.2L557.3 173.4L662 168.4Z" fill="#2b0502" stroke="#000000"></path><path d="M1382.7 95.2L1261 0L1279 105.2Z" fill="#230302" stroke="#000000"></path><path d="M848.3 0L741.7 0L773.7 77.2Z" fill="#2f0502" stroke="#000000"></path><path d="M422.7 697.3L548.3 767.5L517.3 673.3Z" fill="#1f0201" stroke="#000000"></path><path d="M548.3 767.5L544.3 889.6L622 778.5Z" fill="#270402" stroke="#000000"></path><path d="M453.7 272.5L433.7 371.7L557.3 308.5Z" fill="#2b0502" stroke="#000000"></path><path d="M1358.7 1080L1402.7 980.8L1263 979.8Z" fill="#2b0502" stroke="#000000"></path><path d="M1402.7 856.6L1521.3 889.6L1468.3 778.5Z" fill="#330402" stroke="#000000"></path><path d="M1615 694.3L1629 565.1L1516.3 679.3Z" fill="#370301" stroke="#000000"></path><path d="M1683.7 495.9L1606 421.7L1579 468.9Z" fill="#3c0201" stroke="#000000"></path><path d="M1579 468.9L1606 421.7L1480.3 369.7Z" fill="#270402" stroke="#000000"></path><path d="M1606 421.7L1575 287.5L1480.3 369.7Z" fill="#1f0201" stroke="#000000"></path><path d="M412.7 207.4L453.7 272.5L557.3 173.4Z" fill="#330402" stroke="#000000"></path><path d="M557.3 173.4L453.7 272.5L557.3 308.5Z" fill="#1a0101" stroke="#000000"></path><path d="M395.7 577.1L546.3 558.1L446.7 506.9Z" fill="#270402" stroke="#000000"></path><path d="M395.7 577.1L422.7 697.3L517.3 673.3Z" fill="#400000" stroke="#000000"></path><path d="M1615 694.3L1516.3 679.3L1618 763.5Z" fill="#2f0502" stroke="#000000"></path><path d="M1516.3 679.3L1629 565.1L1494.3 570.1Z" fill="#330402" stroke="#000000"></path><path d="M330 489.9L395.7 577.1L446.7 506.9Z" fill="#140000" stroke="#000000"></path><path d="M1151.3 1080L1286 1080L1263 979.8Z" fill="#370301" stroke="#000000"></path><path d="M1618 763.5L1516.3 679.3L1468.3 778.5Z" fill="#230302" stroke="#000000"></path><path d="M1493.3 950.8L1402.7 856.6L1402.7 980.8Z" fill="#2f0502" stroke="#000000"></path><path d="M1493.3 950.8L1521.3 889.6L1402.7 856.6Z" fill="#230302" stroke="#000000"></path><path d="M422.7 697.3L448.7 800.5L548.3 767.5Z" fill="#230302" stroke="#000000"></path><path d="M633 1080L718.7 1080L645 962.8Z" fill="#330402" stroke="#000000"></path><path d="M645 962.8L718.7 1080L726.7 955.8Z" fill="#2b0502" stroke="#000000"></path><path d="M527.3 951.8L630 892.6L544.3 889.6Z" fill="#370301" stroke="#000000"></path><path d="M617 112.2L551.3 92.2L557.3 173.4Z" fill="#2b0502" stroke="#000000"></path><path d="M616 0L551.3 92.2L617 112.2Z" fill="#1a0101" stroke="#000000"></path><path d="M1523.3 1080L1493.3 950.8L1402.7 980.8Z" fill="#2f0502" stroke="#000000"></path><path d="M1611 853.6L1618 763.5L1468.3 778.5Z" fill="#400000" stroke="#000000"></path><path d="M1580 210.4L1501.3 101.2L1476.3 187.4Z" fill="#2f0502" stroke="#000000"></path><path d="M1476.3 187.4L1501.3 101.2L1382.7 95.2Z" fill="#330402" stroke="#000000"></path><path d="M1382.7 95.2L1405.7 0L1261 0Z" fill="#400000" stroke="#000000"></path><path d="M442.7 887.6L527.3 951.8L544.3 889.6Z" fill="#1f0201" stroke="#000000"></path><path d="M1685.7 303.5L1580 210.4L1575 287.5Z" fill="#2f0502" stroke="#000000"></path><path d="M1575 287.5L1580 210.4L1499.3 275.5Z" fill="#1f0201" stroke="#000000"></path><path d="M1685.7 303.5L1575 287.5L1606 421.7Z" fill="#3c0201" stroke="#000000"></path><path d="M1611 853.6L1468.3 778.5L1521.3 889.6Z" fill="#230302" stroke="#000000"></path><path d="M1723.7 587.1L1683.7 495.9L1629 565.1Z" fill="#1a0101" stroke="#000000"></path><path d="M1477.3 0L1405.7 0L1382.7 95.2Z" fill="#140000" stroke="#000000"></path><path d="M1286 1080L1358.7 1080L1263 979.8Z" fill="#330402" stroke="#000000"></path><path d="M741.7 0L616 0L617 112.2Z" fill="#330402" stroke="#000000"></path><path d="M1682.7 688.3L1629 565.1L1615 694.3Z" fill="#140000" stroke="#000000"></path><path d="M1629 565.1L1683.7 495.9L1579 468.9Z" fill="#330402" stroke="#000000"></path><path d="M549.3 1080L633 1080L645 962.8Z" fill="#270402" stroke="#000000"></path><path d="M448.7 800.5L442.7 887.6L544.3 889.6Z" fill="#400000" stroke="#000000"></path><path d="M527.3 951.8L549.3 1080L645 962.8Z" fill="#1a0101" stroke="#000000"></path><path d="M322 894.6L442.7 887.6L448.7 800.5Z" fill="#230302" stroke="#000000"></path><path d="M314 766.5L448.7 800.5L422.7 697.3Z" fill="#2b0502" stroke="#000000"></path><path d="M428.7 95.2L557.3 173.4L551.3 92.2Z" fill="#2b0502" stroke="#000000"></path><path d="M428.7 95.2L412.7 207.4L557.3 173.4Z" fill="#330402" stroke="#000000"></path><path d="M453.7 272.5L342 381.7L433.7 371.7Z" fill="#3c0201" stroke="#000000"></path><path d="M433.7 371.7L330 489.9L446.7 506.9Z" fill="#2f0502" stroke="#000000"></path><path d="M342 381.7L330 489.9L433.7 371.7Z" fill="#1f0201" stroke="#000000"></path><path d="M395.7 577.1L315 699.3L422.7 697.3Z" fill="#2f0502" stroke="#000000"></path><path d="M1602 974.8L1611 853.6L1521.3 889.6Z" fill="#140000" stroke="#000000"></path><path d="M1618 763.5L1682.7 688.3L1615 694.3Z" fill="#230302" stroke="#000000"></path><path d="M1602 974.8L1521.3 889.6L1493.3 950.8Z" fill="#2b0502" stroke="#000000"></path><path d="M288 279.5L342 381.7L453.7 272.5Z" fill="#330402" stroke="#000000"></path><path d="M1693.7 778.5L1682.7 688.3L1618 763.5Z" fill="#400000" stroke="#000000"></path><path d="M616 0L549.3 0L551.3 92.2Z" fill="#3c0201" stroke="#000000"></path><path d="M1501.3 101.2L1477.3 0L1382.7 95.2Z" fill="#3c0201" stroke="#000000"></path><path d="M1617 0L1477.3 0L1501.3 101.2Z" fill="#1f0201" stroke="#000000"></path><path d="M1720.7 366.7L1606 421.7L1683.7 495.9Z" fill="#1f0201" stroke="#000000"></path><path d="M1720.7 366.7L1685.7 303.5L1606 421.7Z" fill="#230302" stroke="#000000"></path><path d="M1580 210.4L1631 66.2L1501.3 101.2Z" fill="#230302" stroke="#000000"></path><path d="M1682.7 688.3L1723.7 587.1L1629 565.1Z" fill="#1a0101" stroke="#000000"></path><path d="M288 580.1L315 699.3L395.7 577.1Z" fill="#1f0201" stroke="#000000"></path><path d="M549.3 0L428.7 95.2L551.3 92.2Z" fill="#230302" stroke="#000000"></path><path d="M412.7 207.4L288 279.5L453.7 272.5Z" fill="#140000" stroke="#000000"></path><path d="M434.7 1080L549.3 1080L527.3 951.8Z" fill="#3c0201" stroke="#000000"></path><path d="M422.7 951.8L527.3 951.8L442.7 887.6Z" fill="#2b0502" stroke="#000000"></path><path d="M1802.3 499.9L1720.7 366.7L1683.7 495.9Z" fill="#2b0502" stroke="#000000"></path><path d="M330 489.9L288 580.1L395.7 577.1Z" fill="#330402" stroke="#000000"></path><path d="M244.3 483.9L288 580.1L330 489.9Z" fill="#370301" stroke="#000000"></path><path d="M1611 853.6L1693.7 778.5L1618 763.5Z" fill="#270402" stroke="#000000"></path><path d="M1796.3 715.3L1797.3 561.1L1723.7 587.1Z" fill="#140000" stroke="#000000"></path><path d="M322 894.6L422.7 951.8L442.7 887.6Z" fill="#2f0502" stroke="#000000"></path><path d="M315 699.3L314 766.5L422.7 697.3Z" fill="#330402" stroke="#000000"></path><path d="M229.3 694.3L314 766.5L315 699.3Z" fill="#330402" stroke="#000000"></path><path d="M1523.3 1080L1602 974.8L1493.3 950.8Z" fill="#330402" stroke="#000000"></path><path d="M1611 853.6L1711.7 868.6L1693.7 778.5Z" fill="#400000" stroke="#000000"></path><path d="M1358.7 1080L1523.3 1080L1402.7 980.8Z" fill="#370301" stroke="#000000"></path><path d="M309 203.4L288 279.5L412.7 207.4Z" fill="#1a0101" stroke="#000000"></path><path d="M342 381.7L244.3 483.9L330 489.9Z" fill="#2f0502" stroke="#000000"></path><path d="M212.3 370.7L244.3 483.9L342 381.7Z" fill="#400000" stroke="#000000"></path><path d="M288 580.1L229.3 694.3L315 699.3Z" fill="#2f0502" stroke="#000000"></path><path d="M1737.7 224.4L1580 210.4L1685.7 303.5Z" fill="#400000" stroke="#000000"></path><path d="M1737.7 224.4L1631 66.2L1580 210.4Z" fill="#1f0201" stroke="#000000"></path><path d="M346 109.2L309 203.4L412.7 207.4Z" fill="#2f0502" stroke="#000000"></path><path d="M1714.7 964.8L1711.7 868.6L1602 974.8Z" fill="#400000" stroke="#000000"></path><path d="M1602 974.8L1711.7 868.6L1611 853.6Z" fill="#330402" stroke="#000000"></path><path d="M1796.3 715.3L1723.7 587.1L1682.7 688.3Z" fill="#400000" stroke="#000000"></path><path d="M240.3 815.5L322 894.6L314 766.5Z" fill="#140000" stroke="#000000"></path><path d="M314 766.5L322 894.6L448.7 800.5Z" fill="#2f0502" stroke="#000000"></path><path d="M422.7 951.8L434.7 1080L527.3 951.8Z" fill="#2f0502" stroke="#000000"></path><path d="M418.7 0L346 109.2L428.7 95.2Z" fill="#1a0101" stroke="#000000"></path><path d="M428.7 95.2L346 109.2L412.7 207.4Z" fill="#230302" stroke="#000000"></path><path d="M1781.3 319.5L1737.7 224.4L1685.7 303.5Z" fill="#3c0201" stroke="#000000"></path><path d="M1781.3 319.5L1685.7 303.5L1720.7 366.7Z" fill="#330402" stroke="#000000"></path><path d="M1796.3 715.3L1682.7 688.3L1693.7 778.5Z" fill="#330402" stroke="#000000"></path><path d="M1723.7 587.1L1802.3 499.9L1683.7 495.9Z" fill="#3c0201" stroke="#000000"></path><path d="M1797.3 561.1L1802.3 499.9L1723.7 587.1Z" fill="#2f0502" stroke="#000000"></path><path d="M549.3 0L418.7 0L428.7 95.2Z" fill="#270402" stroke="#000000"></path><path d="M1823.3 406.7L1781.3 319.5L1720.7 366.7Z" fill="#140000" stroke="#000000"></path><path d="M1523.3 1080L1581 1080L1602 974.8Z" fill="#230302" stroke="#000000"></path><path d="M1687.7 0L1617 0L1631 66.2Z" fill="#1a0101" stroke="#000000"></path><path d="M1631 66.2L1617 0L1501.3 101.2Z" fill="#230302" stroke="#000000"></path><path d="M190.3 577.1L229.3 694.3L288 580.1Z" fill="#400000" stroke="#000000"></path><path d="M308 994.8L434.7 1080L422.7 951.8Z" fill="#140000" stroke="#000000"></path><path d="M1783.3 773.5L1796.3 715.3L1693.7 778.5Z" fill="#400000" stroke="#000000"></path><path d="M1920 510.9L1823.3 406.7L1802.3 499.9Z" fill="#230302" stroke="#000000"></path><path d="M1711.7 868.6L1783.3 773.5L1693.7 778.5Z" fill="#370301" stroke="#000000"></path><path d="M1810.3 852.6L1783.3 773.5L1711.7 868.6Z" fill="#270402" stroke="#000000"></path><path d="M288 279.5L226.3 315.5L342 381.7Z" fill="#400000" stroke="#000000"></path><path d="M244.3 483.9L190.3 577.1L288 580.1Z" fill="#270402" stroke="#000000"></path><path d="M206.3 193.4L226.3 315.5L288 279.5Z" fill="#370301" stroke="#000000"></path><path d="M206.3 193.4L288 279.5L309 203.4Z" fill="#370301" stroke="#000000"></path><path d="M226.3 315.5L212.3 370.7L342 381.7Z" fill="#2b0502" stroke="#000000"></path><path d="M1920 510.9L1802.3 499.9L1920 558.1Z" fill="#230302" stroke="#000000"></path><path d="M1802.3 499.9L1823.3 406.7L1720.7 366.7Z" fill="#230302" stroke="#000000"></path><path d="M1802.3 116.2L1710.7 68.2L1737.7 224.4Z" fill="#270402" stroke="#000000"></path><path d="M105.7 590.1L190.3 577.1L92.7 500.9Z" fill="#1f0201" stroke="#000000"></path><path d="M229.3 694.3L240.3 815.5L314 766.5Z" fill="#330402" stroke="#000000"></path><path d="M322 894.6L308 994.8L422.7 951.8Z" fill="#2f0502" stroke="#000000"></path><path d="M212.3 864.6L240.3 815.5L133.7 778.5Z" fill="#370301" stroke="#000000"></path><path d="M1689.7 1080L1714.7 964.8L1602 974.8Z" fill="#2f0502" stroke="#000000"></path><path d="M1808.3 214.4L1737.7 224.4L1781.3 319.5Z" fill="#370301" stroke="#000000"></path><path d="M1737.7 224.4L1710.7 68.2L1631 66.2Z" fill="#140000" stroke="#000000"></path><path d="M203.3 953.8L308 994.8L322 894.6Z" fill="#270402" stroke="#000000"></path><path d="M1920 321.5L1808.3 214.4L1781.3 319.5Z" fill="#370301" stroke="#000000"></path><path d="M1781.3 0L1687.7 0L1710.7 68.2Z" fill="#270402" stroke="#000000"></path><path d="M1710.7 68.2L1687.7 0L1631 66.2Z" fill="#330402" stroke="#000000"></path><path d="M418.7 0L332 0L346 109.2Z" fill="#140000" stroke="#000000"></path><path d="M230.3 93.2L206.3 193.4L309 203.4Z" fill="#2b0502" stroke="#000000"></path><path d="M1784.3 955.8L1810.3 852.6L1711.7 868.6Z" fill="#3c0201" stroke="#000000"></path><path d="M1920 802.5L1920 712.3L1796.3 715.3Z" fill="#400000" stroke="#000000"></path><path d="M1920 558.1L1802.3 499.9L1797.3 561.1Z" fill="#140000" stroke="#000000"></path><path d="M133.7 778.5L240.3 815.5L229.3 694.3Z" fill="#1a0101" stroke="#000000"></path><path d="M240.3 815.5L212.3 864.6L322 894.6Z" fill="#3c0201" stroke="#000000"></path><path d="M230.3 93.2L309 203.4L346 109.2Z" fill="#3c0201" stroke="#000000"></path><path d="M114.7 287.5L95.7 409.7L212.3 370.7Z" fill="#2b0502" stroke="#000000"></path><path d="M92.7 500.9L190.3 577.1L244.3 483.9Z" fill="#140000" stroke="#000000"></path><path d="M1581 1080L1689.7 1080L1602 974.8Z" fill="#400000" stroke="#000000"></path><path d="M1714.7 964.8L1784.3 955.8L1711.7 868.6Z" fill="#370301" stroke="#000000"></path><path d="M1796.3 1080L1784.3 955.8L1714.7 964.8Z" fill="#1a0101" stroke="#000000"></path><path d="M198.3 1080L323 1080L308 994.8Z" fill="#1a0101" stroke="#000000"></path><path d="M308 994.8L323 1080L434.7 1080Z" fill="#230302" stroke="#000000"></path><path d="M1920 165.4L1802.3 116.2L1808.3 214.4Z" fill="#1a0101" stroke="#000000"></path><path d="M1808.3 214.4L1802.3 116.2L1737.7 224.4Z" fill="#2f0502" stroke="#000000"></path><path d="M332 0L230.3 93.2L346 109.2Z" fill="#230302" stroke="#000000"></path><path d="M1920 558.1L1797.3 561.1L1920 712.3Z" fill="#1a0101" stroke="#000000"></path><path d="M1823.3 406.7L1920 321.5L1781.3 319.5Z" fill="#270402" stroke="#000000"></path><path d="M1797.3 561.1L1796.3 715.3L1920 712.3Z" fill="#370301" stroke="#000000"></path><path d="M1796.3 715.3L1783.3 773.5L1920 802.5Z" fill="#140000" stroke="#000000"></path><path d="M92.7 500.9L244.3 483.9L95.7 409.7Z" fill="#370301" stroke="#000000"></path><path d="M190.3 577.1L85.7 674.3L229.3 694.3Z" fill="#2b0502" stroke="#000000"></path><path d="M244.3 483.9L212.3 370.7L95.7 409.7Z" fill="#1f0201" stroke="#000000"></path><path d="M85.7 674.3L133.7 778.5L229.3 694.3Z" fill="#330402" stroke="#000000"></path><path d="M212.3 864.6L203.3 953.8L322 894.6Z" fill="#330402" stroke="#000000"></path><path d="M130.7 912.6L203.3 953.8L212.3 864.6Z" fill="#330402" stroke="#000000"></path><path d="M212.3 370.7L226.3 315.5L114.7 287.5Z" fill="#2b0502" stroke="#000000"></path><path d="M1920 510.9L1920 363.7L1823.3 406.7Z" fill="#1f0201" stroke="#000000"></path><path d="M114.7 287.5L226.3 315.5L206.3 193.4Z" fill="#370301" stroke="#000000"></path><path d="M1920 802.5L1783.3 773.5L1810.3 852.6Z" fill="#140000" stroke="#000000"></path><path d="M111.7 194.4L114.7 287.5L206.3 193.4Z" fill="#1a0101" stroke="#000000"></path><path d="M1920 363.7L1920 321.5L1823.3 406.7Z" fill="#3c0201" stroke="#000000"></path><path d="M1920 0L1781.3 0L1802.3 116.2Z" fill="#2f0502" stroke="#000000"></path><path d="M1802.3 116.2L1781.3 0L1710.7 68.2Z" fill="#3c0201" stroke="#000000"></path><path d="M332 0L242.3 0L230.3 93.2Z" fill="#270402" stroke="#000000"></path><path d="M134.7 127.2L111.7 194.4L206.3 193.4Z" fill="#330402" stroke="#000000"></path><path d="M105.7 590.1L85.7 674.3L190.3 577.1Z" fill="#2f0502" stroke="#000000"></path><path d="M133.7 778.5L130.7 912.6L212.3 864.6Z" fill="#330402" stroke="#000000"></path><path d="M0 588.1L85.7 674.3L105.7 590.1Z" fill="#270402" stroke="#000000"></path><path d="M0 588.1L105.7 590.1L92.7 500.9Z" fill="#400000" stroke="#000000"></path><path d="M1920 852.6L1920 802.5L1810.3 852.6Z" fill="#1a0101" stroke="#000000"></path><path d="M1920 852.6L1810.3 852.6L1920 985.8Z" fill="#2f0502" stroke="#000000"></path><path d="M134.7 127.2L206.3 193.4L230.3 93.2Z" fill="#270402" stroke="#000000"></path><path d="M0 420.7L92.7 500.9L95.7 409.7Z" fill="#400000" stroke="#000000"></path><path d="M1689.7 1080L1796.3 1080L1714.7 964.8Z" fill="#370301" stroke="#000000"></path><path d="M90.7 0L134.7 127.2L230.3 93.2Z" fill="#3c0201" stroke="#000000"></path><path d="M0 859.6L130.7 912.6L133.7 778.5Z" fill="#1f0201" stroke="#000000"></path><path d="M203.3 953.8L198.3 1080L308 994.8Z" fill="#2f0502" stroke="#000000"></path><path d="M1920 985.8L1810.3 852.6L1784.3 955.8Z" fill="#2f0502" stroke="#000000"></path><path d="M1920 321.5L1920 165.4L1808.3 214.4Z" fill="#140000" stroke="#000000"></path><path d="M101.7 1007.8L198.3 1080L203.3 953.8Z" fill="#400000" stroke="#000000"></path><path d="M1920 165.4L1920 107.2L1802.3 116.2Z" fill="#330402" stroke="#000000"></path><path d="M0 420.7L95.7 409.7L0 284.5Z" fill="#330402" stroke="#000000"></path><path d="M0 420.7L0 497.9L92.7 500.9Z" fill="#230302" stroke="#000000"></path><path d="M85.7 674.3L0 813.5L133.7 778.5Z" fill="#1a0101" stroke="#000000"></path><path d="M95.7 409.7L114.7 287.5L0 284.5Z" fill="#3c0201" stroke="#000000"></path><path d="M0 497.9L0 588.1L92.7 500.9Z" fill="#2f0502" stroke="#000000"></path><path d="M0 284.5L114.7 287.5L0 214.4Z" fill="#270402" stroke="#000000"></path><path d="M1796.3 1080L1920 985.8L1784.3 955.8Z" fill="#2f0502" stroke="#000000"></path><path d="M0 588.1L0 687.3L85.7 674.3Z" fill="#400000" stroke="#000000"></path><path d="M130.7 912.6L101.7 1007.8L203.3 953.8Z" fill="#140000" stroke="#000000"></path><path d="M0 959.8L101.7 1007.8L130.7 912.6Z" fill="#370301" stroke="#000000"></path><path d="M0 214.4L114.7 287.5L111.7 194.4Z" fill="#370301" stroke="#000000"></path><path d="M0 214.4L111.7 194.4L0 66.2Z" fill="#3c0201" stroke="#000000"></path><path d="M1920 107.2L1920 0L1802.3 116.2Z" fill="#3c0201" stroke="#000000"></path><path d="M0 1080L122.7 1080L101.7 1007.8Z" fill="#2b0502" stroke="#000000"></path><path d="M101.7 1007.8L122.7 1080L198.3 1080Z" fill="#370301" stroke="#000000"></path><path d="M0 687.3L0 813.5L85.7 674.3Z" fill="#140000" stroke="#000000"></path><path d="M0 66.2L111.7 194.4L134.7 127.2Z" fill="#270402" stroke="#000000"></path><path d="M242.3 0L90.7 0L230.3 93.2Z" fill="#1a0101" stroke="#000000"></path><path d="M1796.3 1080L1920 1080L1920 985.8Z" fill="#140000" stroke="#000000"></path><path d="M0 813.5L0 859.6L133.7 778.5Z" fill="#330402" stroke="#000000"></path><path d="M0 859.6L0 959.8L130.7 912.6Z" fill="#230302" stroke="#000000"></path><path d="M90.7 0L0 66.2L134.7 127.2Z" fill="#2b0502" stroke="#000000"></path><path d="M90.7 0L0 0L0 66.2Z" fill="#2b0502" stroke="#000000"></path><path d="M0 959.8L0 1080L101.7 1007.8Z" fill="#2f0502" stroke="#000000"></path></g></svg>